<?xml version="1.0" standalone="no"?>
<!DOCTYPE svg PUBLIC "-//W3C//DTD SVG 1.1//EN" "http://www.w3.org/Graphics/SVG/1.1/DTD/svg11.dtd" >
<svg xmlns="http://www.w3.org/2000/svg" xmlns:xlink="http://www.w3.org/1999/xlink" version="1.1" viewBox="-10 0 712 1000">
   <path fill="currentColor"
d="M630 6q7 10 15 19t16 20q8 8 15.5 18t15.5 18q-14 12 -25 17q-5 3 -10 6.5t-11 6.5q-5 4 -10 7t-10 7q-7 3 -13 7.5t-14 7.5q-3 5 -3.5 7t-0.5 6q3 2 1.5 4.5t-3.5 4.5q-7 5 -12 9.5t-10 8.5q-4 5 -8.5 8.5t-9.5 7.5q-4 4 -8.5 7.5t-8.5 6.5q-5 5 -10.5 9t-12.5 9
q-2 2 -4 2l-2 -2q0 -2 -3 -4q0 -3 -2 -3q-12 12 -16 12q-2 2 -5 4q-1 1 -2 1q-1 1 -3 1q-2 3 -16 14q0 5 -6 5q-4 4 0 9q0 3 1 4q0 1 1 1q4 0 4 -2q2 0 2.5 -1.5t2.5 -1.5q2 -2 4 -2q13 14 24.5 27.5t22.5 27.5t22.5 27.5t23.5 27.5q3 4 0 7q-2 2 -3.5 2.5t-3.5 2.5l3.5 3.5
t3.5 5.5l6 6q-10 11 -19.5 18t-17.5 15q-18 14 -29 22q-5 5 -11.5 10.5t-12.5 10.5q-5 4 -11 9t-13 12q-11 7 -19 11.5t-16 4.5q-7 2 -13.5 1t-11.5 -3q-13 -4 -22 -12q-6 -3 -11.5 -3.5t-10.5 -0.5q-7 3 -10.5 6.5t-7.5 6.5q-2 5 -3 9t1 9q0 9 5 19q3 5 6.5 10.5t6.5 12.5
q7 12 13.5 24t12.5 24q7 11 12.5 22.5t12.5 26.5q5 7 8.5 14.5t6.5 14.5q5 8 7.5 16t4.5 16q0 7 -0.5 13.5t-4.5 13.5q-6 14 -27 28q-13 10 -28 7q-16 0 -31 -7q-11 -10 -18 -20.5t-11 -18.5q-2 -10 -4.5 -19.5t-6.5 -21.5q-3 -14 -6.5 -26t-6.5 -24q-4 -13 -7 -26t-7 -27
q-3 -8 -4 -14.5t-3 -13.5q-3 -16 -10 -22q-2 -6 -13 -9q-4 0 -7 -2t-7 -4q-5 0 -13 -4q-9 -6 -13 -14q-5 5 -9.5 8.5t-8.5 5.5q-4 4 -13 0q-3 -4 -3.5 -7t-0.5 -5q2 -3 3 -5l3 -6q4 -2 7 -4.5t7 -4.5q3 -3 6.5 -6t6.5 -5q-5 -10 -11.5 -18t-12.5 -15q-17 -16 -29 -35l33 -27
q8 -7 16.5 -13.5t16.5 -14.5q-3 -2 -13 -2q-7 4 -13 8q-5 3 -8.5 6.5t-7.5 6.5q-3 4 -6.5 7t-6.5 7q-8 5 -12 12t-8 15q-3 8 -7.5 14.5t-7.5 11.5q-11 10 -18 13q-3 6 -12 9l-5 5t-7 5q-3 2 -7 5.5t-11 8.5q-7 -8 -13.5 -17.5t-14.5 -17.5q-7 -8 -13.5 -17t-13.5 -17
q5 -6 8.5 -9.5l7.5 -7.5q3 -3 6 -5t5 -4q7 -2 12 -9q2 -2 6 -4.5t8 -6.5q7 -3 12.5 -6t12.5 -5q8 -5 13 -7t12 -5q7 -4 13.5 -7t11.5 -7q13 -6 24 -20l3 -3q1 -1 1 -2q0 -2 1 -3t2 -1v-6q0 -4 2 -4q3 -7 13 -12q4 -3 7 -6.5t7 -6.5q6 -3 12 -7q7 -3 14 0q15 -15 29 -26
q7 -5 14 -11t14 -11l3 -3q1 -1 1 -2v-4v-5q0 -2 1 -3t2 -1q5 -4 9.5 -8t8.5 -9q8 -8 17 -11q3 -2 6.5 -3.5t6.5 -1.5q2 0 5 -0.5t6 -3.5l-1 -1q-2 -2 -3 -4q-2 0 -2.5 -1t-2.5 -1q-4 -4 -4 -7q-3 0 0 -6h2v-3h2q4 -4 7 -7.5t7 -6.5q3 -4 6.5 -4.5t6.5 -0.5q2 0 3.5 -1t1.5 1
q2 0 2 5q2 0 2 4q0 1 2 3l2 2q5 -4 9.5 -7t8.5 -5q2 -3 4 -3.5t2 -2.5q2 -2 3.5 -2.5t1.5 -2.5q2 0 2 -1t2 -3q2 0 9 -7q4 -2 7.5 -5.5t11.5 -8.5q4 5 8.5 10.5t7.5 10.5q5 5 9 10t9 10q-10 9 -16.5 14.5t-10.5 9.5q-3 3 -6.5 6t-7.5 5q-2 3 -5.5 5.5t-8.5 7.5q-3 4 -11 9.5
t-16 14.5q-3 2 -6 3.5t-5 3.5q-2 0 -4 1t-2 3q-2 0 -2 5q0 4 6 11q7 -5 13 -9.5t9 -6.5q4 -3 6.5 -5t4.5 -4q4 -3 7 -7q4 0 7 -5l5 -5t7 -6q4 -4 10 -7.5t13 -10.5q2 -3 0 -5l-3 -2q-2 -2 -2 -5q-1 0 -1 -1l1 -1q7 -5 12 -9.5t8 -9.5q5 -4 10.5 -7t9.5 -7q5 -5 9.5 -8.5
t8.5 -6.5q5 -4 10 -8.5t12 -9.5q6 -6 12 -4h9q7 -5 12.5 -10.5t10.5 -9.5q3 -5 7.5 -9.5l8.5 -8.5q5 -5 10 -9.5t9 -9.5l10 -10zM419 398q-7 2 -13.5 3.5t-11.5 5.5q-5 3 -8.5 7t-7.5 9q-9 11 -12 30q2 3 4.5 7.5t5.5 8.5q2 3 5.5 5t8.5 6q5 5 11.5 5.5t15.5 2.5q7 0 16 -8
q4 -2 8.5 -5t7.5 -6q5 -4 9 -7.5t9 -8.5z" />
</svg>
