<?xml version="1.0" standalone="no"?>
<!DOCTYPE svg PUBLIC "-//W3C//DTD SVG 1.1//EN" "http://www.w3.org/Graphics/SVG/1.1/DTD/svg11.dtd" >
<svg xmlns="http://www.w3.org/2000/svg" xmlns:xlink="http://www.w3.org/1999/xlink" version="1.1" viewBox="-10 0 668 1000">
   <path fill="currentColor"
d="M352 129q61 5 115 31.5t94 70t63 99.5t23 119q0 66 -25 124.5t-68.5 102t-102 68.5t-124.5 25t-124.5 -25t-102 -68.5t-68.5 -102t-25 -124.5q0 -63 23 -119t62.5 -99.5t93 -70t115.5 -31.5q3 -25 6.5 -47t7 -38.5t6.5 -26.5t6 -10t6 10t6.5 26.5t6.5 38.5t6 47zM327 681
q48 0 90 -18t73.5 -49.5t50 -74t18.5 -90.5q0 -44 -15 -83.5t-42 -70t-64 -51t-80 -25.5l10 130l99 -40l-40 99l98 41l-98 41l40 100l-99 -41l-41 98l-41 -98l-100 41l41 -100l-98 -41l98 -41l-41 -99l100 40l9 -130q-43 5 -79.5 25.5t-63.5 51t-42 70t-15 83.5
q0 48 18 90.5t49.5 74t74 49.5t90.5 18z" />
</svg>
