<?xml version="1.0" standalone="no"?>
<!DOCTYPE svg PUBLIC "-//W3C//DTD SVG 1.1//EN" "http://www.w3.org/Graphics/SVG/1.1/DTD/svg11.dtd" >
<svg xmlns="http://www.w3.org/2000/svg" xmlns:xlink="http://www.w3.org/1999/xlink" version="1.1" viewBox="-10 0 640 1000">
   <path fill="currentColor"
d="M312 325h4h7l2 1l1 1h2h9v1q0 1 1 1h4q1 0 1.5 0.5t1.5 0.5l1 1q4 0 6 2q23 8 41 26t27 41q4 4 4 11v2v2q1 0 2 1v1v2v2v2v2v2h2v2v2v2v2v2v2v2v6v4v4v2q-2 0 -2 4q0 6 -2 8q0 6 -1 10q-10 26 -28.5 44.5t-42.5 27.5q-2 2 -6 2q0 1 -1 1q-1 1 -3 1h-4h-1q-2 2 -4.5 2
h-4.5h-2q0 1 -1 1q-1 1 -2 1h-7h-4h-6h-4h-2l-1 -1q-1 0 -1.5 -0.5t-1.5 -0.5h-4h-6q-8 -4 -13 -4q-54 -19 -73 -74q0 -3 -1 -5t-1 -5q0 -2 -1 -4t-1 -4v-4v-2v-1q0 -1 -2 -3v-4v-6v-2v-2v-2v-2v-2h2v-2v-2v-2v-2v-2v-2l2 -2v-2v-2v-2q2 -3 2 -6t2 -5q9 -23 27.5 -41.5
t43.5 -27.5q5 0 13 -4h6q2 0 4 -1t4 -1h2h4h6zM242 605q8 3 15.5 5t15.5 5v132h-269v-268h134q2 8 4.5 16t5.5 16q8 15 17 29.5t21 26.5t27 21t29 17zM148 373q-3 6 -4.5 13t-3.5 14h-136v-269h269v138q-8 3 -15.5 5t-15.5 5q-14 8 -29 17t-27 21t-21 26.5t-17 29.5z
M474 511q3 -8 5.5 -16t4.5 -16h136v268h-268v-133q8 -2 14 -4t14 -5q32 -15 57 -38q11 -12 21 -26.5t16 -29.5zM620 131v269h-138q-2 -7 -3.5 -14t-4.5 -13q-6 -15 -16 -29.5t-21 -26.5q-25 -23 -57 -38q-8 -3 -14 -5t-14 -5v-138h268z" />
</svg>
